<?xml version="1.0" encoding="UTF-8" standalone="no"?>
<!DOCTYPE svg PUBLIC "-//W3C//DTD SVG 1.1//EN"
 "http://www.w3.org/Graphics/SVG/1.1/DTD/svg11.dtd">
<!-- Generated by graphviz version 2.38.0 (20140413.2041)
 -->
<!-- Title: %3 Pages: 1 -->
<svg width="264pt" height="455pt"
 viewBox="0.00 0.00 264.00 454.99" xmlns="http://www.w3.org/2000/svg" xmlns:xlink="http://www.w3.org/1999/xlink">
<g id="graph0" class="graph" transform="scale(1 1) rotate(0) translate(4 450.987)">
<title>%3</title>
<polygon fill="white" stroke="none" points="-4,4 -4,-450.987 260,-450.987 260,4 -4,4"/>
<g id="clust1" class="cluster"><title>cluster_File&#45;Block&#45;Ref</title>
<polygon fill="none" stroke="black" points="8,-386.987 8,-438.987 150,-438.987 150,-386.987 8,-386.987"/>
</g>
<!-- folder -->
<g id="node1" class="node"><title>folder</title>
<polygon fill="none" stroke="green" stroke-width="2" points="142,-430.987 88,-430.987 88,-394.987 142,-394.987 142,-430.987"/>
<text text-anchor="middle" x="115" y="-409.287" font-family="Times New Roman,serif" font-size="14.00">folder</text>
</g>
<!-- file&#45;block&#45;ref -->
<g id="node3" class="node"><title>file&#45;block&#45;ref</title>
<polygon fill="none" stroke="black" stroke-width="2" points="123.5,-358.987 34.5,-358.987 34.5,-322.987 123.5,-322.987 123.5,-358.987"/>
<text text-anchor="middle" x="79" y="-337.287" font-family="Times New Roman,serif" font-size="14.00">file&#45;block&#45;ref</text>
</g>
<!-- folder&#45;&gt;file&#45;block&#45;ref -->
<g id="edge1" class="edge"><title>folder&#45;&gt;file&#45;block&#45;ref</title>
<path fill="none" stroke="#404050" stroke-width="2" d="M106.101,-394.684C102.003,-386.716 97.0512,-377.087 92.5073,-368.251"/>
<polygon fill="#404050" stroke="#404050" stroke-width="2" points="95.4826,-366.384 87.7965,-359.092 89.2575,-369.585 95.4826,-366.384"/>
</g>
<!-- filter -->
<g id="node2" class="node"><title>filter</title>
<polygon fill="none" stroke="green" stroke-width="2" points="70,-430.987 16,-430.987 16,-394.987 70,-394.987 70,-430.987"/>
<text text-anchor="middle" x="43" y="-409.287" font-family="Times New Roman,serif" font-size="14.00">filter</text>
</g>
<!-- filter&#45;&gt;file&#45;block&#45;ref -->
<g id="edge2" class="edge"><title>filter&#45;&gt;file&#45;block&#45;ref</title>
<path fill="none" stroke="#404050" stroke-width="2" d="M51.8989,-394.684C55.9968,-386.716 60.9488,-377.087 65.4927,-368.251"/>
<polygon fill="#404050" stroke="#404050" stroke-width="2" points="68.7425,-369.585 70.2035,-359.092 62.5174,-366.384 68.7425,-369.585"/>
</g>
<!-- package&#45;instruction -->
<g id="node4" class="node"><title>package&#45;instruction</title>
<polygon fill="none" stroke="black" stroke-width="2" points="201.5,-286.987 76.5,-286.987 76.5,-250.987 201.5,-250.987 201.5,-286.987"/>
<text text-anchor="middle" x="139" y="-265.287" font-family="Times New Roman,serif" font-size="14.00">package&#45;instruction</text>
</g>
<!-- file&#45;block&#45;ref&#45;&gt;package&#45;instruction -->
<g id="edge3" class="edge"><title>file&#45;block&#45;ref&#45;&gt;package&#45;instruction</title>
<path fill="none" stroke="#404050" stroke-width="2" d="M93.8315,-322.684C101.025,-314.292 109.797,-304.058 117.69,-294.849"/>
<polygon fill="#404050" stroke="#404050" stroke-width="2" points="120.489,-296.962 124.339,-287.092 115.174,-292.406 120.489,-296.962"/>
</g>
<!-- Broker&#45;packager -->
<g id="node6" class="node"><title>Broker&#45;packager</title>
<ellipse fill="none" stroke="orange" stroke-width="2" cx="139" cy="-143.494" rx="71.4873" ry="71.4873"/>
<text text-anchor="middle" x="139" y="-139.794" font-family="Times New Roman,serif" font-size="14.00">Broker&#45;packager</text>
</g>
<!-- package&#45;instruction&#45;&gt;Broker&#45;packager -->
<g id="edge5" class="edge"><title>package&#45;instruction&#45;&gt;Broker&#45;packager</title>
<path fill="none" stroke="#404050" stroke-width="2" d="M139,-250.816C139,-243.684 139,-234.852 139,-225.351"/>
<polygon fill="#404050" stroke="#404050" stroke-width="2" points="142.5,-225.251 139,-215.251 135.5,-225.251 142.5,-225.251"/>
</g>
<!-- destination&#45;folder -->
<g id="node5" class="node"><title>destination&#45;folder</title>
<polygon fill="none" stroke="green" stroke-width="2" points="256,-358.987 142,-358.987 142,-322.987 256,-322.987 256,-358.987"/>
<text text-anchor="middle" x="199" y="-337.287" font-family="Times New Roman,serif" font-size="14.00">destination&#45;folder</text>
</g>
<!-- destination&#45;folder&#45;&gt;package&#45;instruction -->
<g id="edge4" class="edge"><title>destination&#45;folder&#45;&gt;package&#45;instruction</title>
<path fill="none" stroke="#404050" stroke-width="2" d="M184.169,-322.684C176.975,-314.292 168.203,-304.058 160.31,-294.849"/>
<polygon fill="#404050" stroke="#404050" stroke-width="2" points="162.826,-292.406 153.661,-287.092 157.511,-296.962 162.826,-292.406"/>
</g>
<!-- Box -->
<g id="node7" class="node"><title>Box</title>
<polygon fill="none" stroke="black" stroke-width="2" points="166,-36 112,-36 112,-0 166,-0 166,-36"/>
<text text-anchor="middle" x="139" y="-14.3" font-family="Times New Roman,serif" font-size="14.00">Box</text>
</g>
<!-- Broker&#45;packager&#45;&gt;Box -->
<g id="edge6" class="edge"><title>Broker&#45;packager&#45;&gt;Box</title>
<path fill="none" stroke="#404050" stroke-width="2" d="M139,-71.7306C139,-62.793 139,-54.1129 139,-46.4612"/>
<polygon fill="#404050" stroke="#404050" stroke-width="2" points="142.5,-46.4092 139,-36.4093 135.5,-46.4093 142.5,-46.4092"/>
</g>
</g>
</svg>
