<?xml version="1.0" encoding="UTF-8" standalone="no"?>
<!DOCTYPE svg PUBLIC "-//W3C//DTD SVG 1.1//EN"
 "http://www.w3.org/Graphics/SVG/1.1/DTD/svg11.dtd">
<!-- Generated by graphviz version 2.38.0 (20140413.2041)
 -->
<!-- Title: %3 Pages: 1 -->
<svg width="264pt" height="442pt"
 viewBox="0.00 0.00 264.00 441.99" xmlns="http://www.w3.org/2000/svg" xmlns:xlink="http://www.w3.org/1999/xlink">
<g id="graph0" class="graph" transform="scale(1 1) rotate(0) translate(4 437.988)">
<title>%3</title>
<polygon fill="white" stroke="none" points="-4,4 -4,-437.988 260,-437.988 260,4 -4,4"/>
<g id="clust1" class="cluster"><title>cluster_File&#45;Block&#45;Ref</title>
<polygon fill="none" stroke="black" points="8,-373.988 8,-425.988 150,-425.988 150,-373.988 8,-373.988"/>
</g>
<!-- folder -->
<g id="node1" class="node"><title>folder</title>
<polygon fill="none" stroke="green" points="142,-417.988 88,-417.988 88,-381.988 142,-381.988 142,-417.988"/>
<text text-anchor="middle" x="115" y="-396.288" font-family="Times New Roman,serif" font-size="14.00">folder</text>
</g>
<!-- file&#45;block&#45;ref -->
<g id="node3" class="node"><title>file&#45;block&#45;ref</title>
<polygon fill="none" stroke="black" points="123.5,-345.988 34.5,-345.988 34.5,-309.988 123.5,-309.988 123.5,-345.988"/>
<text text-anchor="middle" x="79" y="-324.288" font-family="Times New Roman,serif" font-size="14.00">file&#45;block&#45;ref</text>
</g>
<!-- folder&#45;&gt;file&#45;block&#45;ref -->
<g id="edge1" class="edge"><title>folder&#45;&gt;file&#45;block&#45;ref</title>
<path fill="none" stroke="black" d="M106.101,-381.685C102.003,-373.717 97.0512,-364.088 92.5073,-355.253"/>
<polygon fill="black" stroke="black" points="95.4826,-353.385 87.7965,-346.093 89.2575,-356.586 95.4826,-353.385"/>
</g>
<!-- filter -->
<g id="node2" class="node"><title>filter</title>
<polygon fill="none" stroke="green" points="70,-417.988 16,-417.988 16,-381.988 70,-381.988 70,-417.988"/>
<text text-anchor="middle" x="43" y="-396.288" font-family="Times New Roman,serif" font-size="14.00">filter</text>
</g>
<!-- filter&#45;&gt;file&#45;block&#45;ref -->
<g id="edge2" class="edge"><title>filter&#45;&gt;file&#45;block&#45;ref</title>
<path fill="none" stroke="black" d="M51.8989,-381.685C55.9968,-373.717 60.9488,-364.088 65.4927,-355.253"/>
<polygon fill="black" stroke="black" points="68.7425,-356.586 70.2035,-346.093 62.5174,-353.385 68.7425,-356.586"/>
</g>
<!-- package&#45;instruction -->
<g id="node4" class="node"><title>package&#45;instruction</title>
<polygon fill="none" stroke="black" points="201.5,-273.988 76.5,-273.988 76.5,-237.988 201.5,-237.988 201.5,-273.988"/>
<text text-anchor="middle" x="139" y="-252.288" font-family="Times New Roman,serif" font-size="14.00">package&#45;instruction</text>
</g>
<!-- file&#45;block&#45;ref&#45;&gt;package&#45;instruction -->
<g id="edge3" class="edge"><title>file&#45;block&#45;ref&#45;&gt;package&#45;instruction</title>
<path fill="none" stroke="black" d="M93.8315,-309.685C101.025,-301.293 109.797,-291.059 117.69,-281.85"/>
<polygon fill="black" stroke="black" points="120.489,-283.963 124.339,-274.093 115.174,-279.408 120.489,-283.963"/>
</g>
<!-- pony&#45;packager -->
<g id="node6" class="node"><title>pony&#45;packager</title>
<ellipse fill="none" stroke="orange" cx="139" cy="-136.994" rx="64.9885" ry="64.9885"/>
<text text-anchor="middle" x="139" y="-133.294" font-family="Times New Roman,serif" font-size="14.00">pony&#45;packager</text>
</g>
<!-- package&#45;instruction&#45;&gt;pony&#45;packager -->
<g id="edge5" class="edge"><title>package&#45;instruction&#45;&gt;pony&#45;packager</title>
<path fill="none" stroke="black" d="M139,-237.977C139,-230.78 139,-221.858 139,-212.329"/>
<polygon fill="black" stroke="black" points="142.5,-212.226 139,-202.226 135.5,-212.226 142.5,-212.226"/>
</g>
<!-- destination&#45;folder -->
<g id="node5" class="node"><title>destination&#45;folder</title>
<polygon fill="none" stroke="green" points="256,-345.988 142,-345.988 142,-309.988 256,-309.988 256,-345.988"/>
<text text-anchor="middle" x="199" y="-324.288" font-family="Times New Roman,serif" font-size="14.00">destination&#45;folder</text>
</g>
<!-- destination&#45;folder&#45;&gt;package&#45;instruction -->
<g id="edge4" class="edge"><title>destination&#45;folder&#45;&gt;package&#45;instruction</title>
<path fill="none" stroke="black" d="M184.169,-309.685C176.975,-301.293 168.203,-291.059 160.31,-281.85"/>
<polygon fill="black" stroke="black" points="162.826,-279.408 153.661,-274.093 157.511,-283.963 162.826,-279.408"/>
</g>
<!-- Box -->
<g id="node7" class="node"><title>Box</title>
<polygon fill="none" stroke="black" points="166,-36 112,-36 112,-0 166,-0 166,-36"/>
<text text-anchor="middle" x="139" y="-14.3" font-family="Times New Roman,serif" font-size="14.00">Box</text>
</g>
<!-- pony&#45;packager&#45;&gt;Box -->
<g id="edge6" class="edge"><title>pony&#45;packager&#45;&gt;Box</title>
<path fill="none" stroke="black" d="M139,-71.6788C139,-62.7286 139,-53.9619 139,-46.2279"/>
<polygon fill="black" stroke="black" points="142.5,-46.0706 139,-36.0707 135.5,-46.0707 142.5,-46.0706"/>
</g>
</g>
</svg>
