<?xml version="1.0" encoding="UTF-8" standalone="no"?>
<!DOCTYPE svg PUBLIC "-//W3C//DTD SVG 1.1//EN"
 "http://www.w3.org/Graphics/SVG/1.1/DTD/svg11.dtd">
<!-- Generated by graphviz version 2.38.0 (20140413.2041)
 -->
<!-- Title: %3 Pages: 1 -->
<svg width="166pt" height="260pt"
 viewBox="0.00 0.00 166.00 260.00" xmlns="http://www.w3.org/2000/svg" xmlns:xlink="http://www.w3.org/1999/xlink">
<g id="graph0" class="graph" transform="scale(1 1) rotate(0) translate(4 256)">
<title>%3</title>
<polygon fill="white" stroke="none" points="-4,4 -4,-256 162,-256 162,4 -4,4"/>
<!-- VCS -->
<g id="node1" class="node"><title>VCS</title>
<polygon fill="none" stroke="blue" stroke-width="3" points="60.5,-252 6.5,-252 6.5,-216 60.5,-216 60.5,-252"/>
<text text-anchor="middle" x="33.5" y="-230.3" font-family="Times New Roman,serif" font-size="14.00">VCS</text>
</g>
<!-- Sandbox -->
<g id="node2" class="node"><title>Sandbox</title>
<polygon fill="none" stroke="blue" stroke-width="3" points="67,-36 0,-36 0,-0 67,-0 67,-36"/>
<text text-anchor="middle" x="33.5" y="-14.3" font-family="Times New Roman,serif" font-size="14.00">Sandbox</text>
</g>
<!-- VCS&#45;&gt;Sandbox -->
<g id="edge1" class="edge"><title>VCS&#45;&gt;Sandbox</title>
<path fill="none" stroke="gray" stroke-width="2" d="M29.6225,-215.849C26.0866,-178.832 25.8151,-91.1809 28.8078,-46.3863"/>
<polygon fill="gray" stroke="gray" stroke-width="2" points="32.3115,-46.4783 29.6147,-36.2325 25.3335,-45.9238 32.3115,-46.4783"/>
</g>
<!-- Build engine -->
<g id="node5" class="node"><title>Build engine</title>
<polygon fill="none" stroke="blue" stroke-width="3" points="158,-180 73,-180 73,-144 158,-144 158,-180"/>
<text text-anchor="middle" x="115.5" y="-158.3" font-family="Times New Roman,serif" font-size="14.00">Build engine</text>
</g>
<!-- VCS&#45;&gt;Build engine -->
<g id="edge6" class="edge"><title>VCS&#45;&gt;Build engine</title>
<path fill="none" stroke="gray" stroke-width="2" d="M53.7697,-215.697C63.9976,-206.965 76.5611,-196.24 87.6782,-186.75"/>
<polygon fill="gray" stroke="gray" stroke-width="2" points="90.1303,-189.259 95.4635,-180.104 85.5854,-183.935 90.1303,-189.259"/>
</g>
<!-- Sandbox&#45;&gt;VCS -->
<g id="edge4" class="edge"><title>Sandbox&#45;&gt;VCS</title>
<path fill="none" stroke="gray" stroke-width="2" d="M37.3853,-36.2325C40.9163,-73.3243 41.1831,-160.981 38.1856,-205.712"/>
<polygon fill="gray" stroke="gray" stroke-width="2" points="34.6833,-205.603 37.3775,-215.849 41.6612,-206.159 34.6833,-205.603"/>
</g>
<!-- portfolio -->
<g id="node3" class="node"><title>portfolio</title>
<polygon fill="none" stroke="blue" stroke-width="3" points="150,-36 85,-36 85,-0 150,-0 150,-36"/>
<text text-anchor="middle" x="117.5" y="-14.3" font-family="Times New Roman,serif" font-size="14.00">portfolio</text>
</g>
<!-- Broker -->
<g id="node4" class="node"><title>Broker</title>
<polygon fill="none" stroke="blue" stroke-width="3" points="143,-108 88,-108 88,-72 143,-72 143,-108"/>
<text text-anchor="middle" x="115.5" y="-86.3" font-family="Times New Roman,serif" font-size="14.00">Broker</text>
</g>
<!-- portfolio&#45;&gt;Broker -->
<g id="edge2" class="edge"><title>portfolio&#45;&gt;Broker</title>
<path fill="none" stroke="gray" stroke-width="2" d="M122.906,-36.1043C123.492,-43.7913 123.464,-53.0537 122.885,-61.6651"/>
<polygon fill="gray" stroke="gray" stroke-width="2" points="119.394,-61.4049 121.91,-71.6966 126.361,-62.0821 119.394,-61.4049"/>
</g>
<!-- Broker&#45;&gt;Sandbox -->
<g id="edge3" class="edge"><title>Broker&#45;&gt;Sandbox</title>
<path fill="none" stroke="gray" stroke-width="2" d="M95.2303,-71.6966C85.0024,-62.9655 72.4389,-52.2405 61.3218,-42.7503"/>
<polygon fill="gray" stroke="gray" stroke-width="2" points="63.4146,-39.935 53.5365,-36.1043 58.8697,-45.259 63.4146,-39.935"/>
</g>
<!-- Broker&#45;&gt;portfolio -->
<g id="edge5" class="edge"><title>Broker&#45;&gt;portfolio</title>
<path fill="none" stroke="gray" stroke-width="2" d="M110.079,-71.6966C109.503,-63.9827 109.542,-54.7125 110.13,-46.1124"/>
<polygon fill="gray" stroke="gray" stroke-width="2" points="113.619,-46.3994 111.116,-36.1043 106.652,-45.7129 113.619,-46.3994"/>
</g>
<!-- Broker&#45;&gt;Build engine -->
<g id="edge7" class="edge"><title>Broker&#45;&gt;Build engine</title>
<path fill="none" stroke="gray" stroke-width="2" d="M121.395,-108.104C122.201,-115.791 122.437,-125.054 122.104,-133.665"/>
<polygon fill="gray" stroke="gray" stroke-width="2" points="118.609,-133.48 121.416,-143.697 125.592,-133.96 118.609,-133.48"/>
</g>
<!-- Build engine&#45;&gt;Broker -->
<g id="edge8" class="edge"><title>Build engine&#45;&gt;Broker</title>
<path fill="none" stroke="gray" stroke-width="2" d="M109.584,-143.697C108.789,-135.983 108.562,-126.712 108.905,-118.112"/>
<polygon fill="gray" stroke="gray" stroke-width="2" points="112.398,-118.324 109.605,-108.104 105.415,-117.836 112.398,-118.324"/>
</g>
</g>
</svg>
