<?xml version="1.0" encoding="UTF-8" standalone="no"?>
<!DOCTYPE svg PUBLIC "-//W3C//DTD SVG 1.1//EN"
 "http://www.w3.org/Graphics/SVG/1.1/DTD/svg11.dtd">
<!-- Generated by graphviz version 2.38.0 (20140413.2041)
 -->
<!-- Title: %3 Pages: 1 -->
<svg width="164pt" height="260pt"
 viewBox="0.00 0.00 164.00 260.00" xmlns="http://www.w3.org/2000/svg" xmlns:xlink="http://www.w3.org/1999/xlink">
<g id="graph0" class="graph" transform="scale(1 1) rotate(0) translate(4 256)">
<title>%3</title>
<polygon fill="white" stroke="none" points="-4,4 -4,-256 160,-256 160,4 -4,4"/>
<!-- VCS -->
<g id="node1" class="node"><title>VCS</title>
<polygon fill="none" stroke="blue" stroke-width="3" points="60.5,-252 6.5,-252 6.5,-216 60.5,-216 60.5,-252"/>
<text text-anchor="middle" x="33.5" y="-230.3" font-family="Times New Roman,serif" font-size="14.00">VCS</text>
</g>
<!-- Sandbox -->
<g id="node2" class="node"><title>Sandbox</title>
<polygon fill="none" stroke="blue" stroke-width="3" points="67,-36 0,-36 0,-0 67,-0 67,-36"/>
<text text-anchor="middle" x="33.5" y="-14.3" font-family="Times New Roman,serif" font-size="14.00">Sandbox</text>
</g>
<!-- VCS&#45;&gt;Sandbox -->
<g id="edge1" class="edge"><title>VCS&#45;&gt;Sandbox</title>
<path fill="none" stroke="gray" stroke-width="2" d="M29.6225,-215.849C26.0866,-178.832 25.8151,-91.1809 28.8078,-46.3863"/>
<polygon fill="gray" stroke="gray" stroke-width="2" points="32.3115,-46.4783 29.6147,-36.2325 25.3335,-45.9238 32.3115,-46.4783"/>
</g>
<!-- Build engine -->
<g id="node5" class="node"><title>Build engine</title>
<polygon fill="none" stroke="blue" stroke-width="3" points="156,-180 71,-180 71,-144 156,-144 156,-180"/>
<text text-anchor="middle" x="113.5" y="-158.3" font-family="Times New Roman,serif" font-size="14.00">Build engine</text>
</g>
<!-- VCS&#45;&gt;Build engine -->
<g id="edge6" class="edge"><title>VCS&#45;&gt;Build engine</title>
<path fill="none" stroke="gray" stroke-width="2" d="M53.2753,-215.697C63.2537,-206.965 75.5109,-196.24 86.3568,-186.75"/>
<polygon fill="gray" stroke="gray" stroke-width="2" points="88.7312,-189.323 93.9522,-180.104 84.1216,-184.055 88.7312,-189.323"/>
</g>
<!-- Sandbox&#45;&gt;VCS -->
<g id="edge4" class="edge"><title>Sandbox&#45;&gt;VCS</title>
<path fill="none" stroke="gray" stroke-width="2" d="M37.3853,-36.2325C40.9163,-73.3243 41.1831,-160.981 38.1856,-205.712"/>
<polygon fill="gray" stroke="gray" stroke-width="2" points="34.6833,-205.603 37.3775,-215.849 41.6612,-206.159 34.6833,-205.603"/>
</g>
<!-- bag -->
<g id="node3" class="node"><title>bag</title>
<polygon fill="none" stroke="blue" stroke-width="3" points="140.5,-36 86.5,-36 86.5,-0 140.5,-0 140.5,-36"/>
<text text-anchor="middle" x="113.5" y="-14.3" font-family="Times New Roman,serif" font-size="14.00">bag</text>
</g>
<!-- Broker -->
<g id="node4" class="node"><title>Broker</title>
<polygon fill="none" stroke="blue" stroke-width="3" points="141,-108 86,-108 86,-72 141,-72 141,-108"/>
<text text-anchor="middle" x="113.5" y="-86.3" font-family="Times New Roman,serif" font-size="14.00">Broker</text>
</g>
<!-- bag&#45;&gt;Broker -->
<g id="edge2" class="edge"><title>bag&#45;&gt;Broker</title>
<path fill="none" stroke="gray" stroke-width="2" d="M119.395,-36.1043C120.201,-43.7913 120.437,-53.0537 120.104,-61.6651"/>
<polygon fill="gray" stroke="gray" stroke-width="2" points="116.609,-61.4805 119.416,-71.6966 123.592,-61.9597 116.609,-61.4805"/>
</g>
<!-- Broker&#45;&gt;Sandbox -->
<g id="edge3" class="edge"><title>Broker&#45;&gt;Sandbox</title>
<path fill="none" stroke="gray" stroke-width="2" d="M93.7247,-71.6966C83.7463,-62.9655 71.4891,-52.2405 60.6432,-42.7503"/>
<polygon fill="gray" stroke="gray" stroke-width="2" points="62.8784,-40.0554 53.0478,-36.1043 58.2688,-45.3234 62.8784,-40.0554"/>
</g>
<!-- Broker&#45;&gt;bag -->
<g id="edge5" class="edge"><title>Broker&#45;&gt;bag</title>
<path fill="none" stroke="gray" stroke-width="2" d="M107.584,-71.6966C106.789,-63.9827 106.562,-54.7125 106.905,-46.1124"/>
<polygon fill="gray" stroke="gray" stroke-width="2" points="110.398,-46.3243 107.605,-36.1043 103.415,-45.8356 110.398,-46.3243"/>
</g>
<!-- Broker&#45;&gt;Build engine -->
<g id="edge7" class="edge"><title>Broker&#45;&gt;Build engine</title>
<path fill="none" stroke="gray" stroke-width="2" d="M119.395,-108.104C120.201,-115.791 120.437,-125.054 120.104,-133.665"/>
<polygon fill="gray" stroke="gray" stroke-width="2" points="116.609,-133.48 119.416,-143.697 123.592,-133.96 116.609,-133.48"/>
</g>
<!-- Build engine&#45;&gt;Broker -->
<g id="edge8" class="edge"><title>Build engine&#45;&gt;Broker</title>
<path fill="none" stroke="gray" stroke-width="2" d="M107.584,-143.697C106.789,-135.983 106.562,-126.712 106.905,-118.112"/>
<polygon fill="gray" stroke="gray" stroke-width="2" points="110.398,-118.324 107.605,-108.104 103.415,-117.836 110.398,-118.324"/>
</g>
</g>
</svg>
